# xmcd CD database file
#
# Track frame offsets:
#	182
#	24640
#	53667
#	71532
#	94125
#	124850
#	134132
#	171887
#	200602
#	218072
#	241092
#
# Disc length: 3530 seconds
#
# Revision: 0
# Processed by: cddbd v1.5.2PL0 Copyright (c) Steve Scherf et al.
# Submitted via: CDex 1.70beta2
#
DISCID=a00dc80b
DTITLE=Dave Brubeck - Assentiel jazz
DYEAR=1900
DGENRE=Jazz
TTITLE0=Take Five
TTITLE1=Flamingo
TTITLE2=Heigh-ho
TTITLE3=One song
TTITLE4=Blue rondo a la turk
TTITLE5=Unsquare dance
TTITLE6=St. Louis Blues
TTITLE7=Someday my princ will come
TTITLE8=A fine romance
TTITLE9=Lover
TTITLE10=I get a kick out of you
EXTD=
EXTT0=
EXTT1=
EXTT2=
EXTT3=
EXTT4=
EXTT5=
EXTT6=
EXTT7=
EXTT8=
EXTT9=
EXTT10=
PLAYORDER=
